<svg xmlns="http://www.w3.org/2000/svg" width="48" height="48"><path d="M9.273 5L6 17l12-3.273zm0 0" fill="#8bc34a"/><path d="M24.734 22.66s-2.55-.765-2.55-2.512c0-2.043 1.726-2.023 2.09-2.023.675 0 2.214.363 2.214 2.875H30c0-4.875-3.813-5.313-5-5.488V13h-2v2.54c-1.3.226-4.332 1.116-4.332 4.597 0 3.718 3.695 4.738 4.004 4.867 2.14.89 3.816 1.16 3.816 3.082 0 1.934-1.93 1.984-2.312 1.984-.332 0-2.66.086-2.66-3.07H18c0 4.93 3.871 5.563 5 5.688V35h2v-2.3c.73-.071 5-.595 5-4.641 0-3.891-4.477-5.098-5.266-5.399zm0 0" fill="#2e7d32"/><path d="M8 24c0-.355.031-.703.055-1.055l-3.992-.261C4.043 23.125 4 23.559 4 24c0 .566.031 1.125.074 1.695l3.992-.351C8.031 24.898 8 24.454 8 24zm0 0M8.773 28.91L4.98 30.137a19.466 19.466 0 0 0 1.243 3l3.558-1.825a15.515 15.515 0 0 1-1.008-2.402zm0 0M11.797 34.332l-3.059 2.574a21.207 21.207 0 0 0 2.25 2.262l2.598-3.035a16.225 16.225 0 0 1-1.79-1.801zm0 0M16.824 38.285l-1.793 3.578a20.35 20.35 0 0 0 2.926 1.2l1.211-3.81a15.814 15.814 0 0 1-2.344-.968zm0 0M24 4c-6.078 0-11.512 2.723-15.18 7h5.875C17.32 9.117 20.527 8 24 8c8.836 0 16 7.164 16 16s-7.164 16-16 16c-.68 0-1.344-.055-2-.137v4.035c.656.067 1.324.102 2 .102 11.047 0 20-8.953 20-20S35.047 4 24 4zm0 0" fill="#8bc34a"/></svg>